# xmcd CD database file
# Copyright (C) 1993-1998 Ti Kan
#
# Track frame offsets:
#	150
#	12577
#	35040
#	45022
#	61190
#	81410
#	97472
#	117247
#	139615
#	154397
#	176200
#
# Disc length: 2432 seconds
#
# Revision: 0
# Processed by: cddbd v1.4b41PL1 Copyright (c) Steve Scherf et al.
# Submitted via: CDmax 1.5
#
DISCID=98097e0b
DTITLE=Brent Parkin - Treasure by The Long River
DYEAR=1900
DGENRE=
TTITLE0=Amber Beach
TTITLE1=White Church
TTITLE2=The Old post
TTITLE3=Good Fishing Place
TTITLE4=Walter's Song
TTITLE5=Bigfoot Stomp
TTITLE6=Dead Heads in the Water
TTITLE7=Travelling North
TTITLE8=Cedar Lake Delta Blues
TTITLE9=Many Treasures
TTITLE10=Amber Beach - Reprise
EXTD=To order:\n\nJoan Driscoll\nBox 53004 Erin Mills Postal Outlet\n5100 Erin
EXTD=Mills Parkway\nMississauga ON L5M 5H0\n\njobob.driscoll@sympatico.ca
EXTT0=
EXTT1=
EXTT2=
EXTT3=
EXTT4=
EXTT5=
EXTT6=
EXTT7=
EXTT8=
EXTT9=
EXTT10=
PLAYORDER=
